<?xml version="1.0" standalone="no"?>
<!DOCTYPE svg PUBLIC "-//W3C//DTD SVG 20010904//EN"
 "http://www.w3.org/TR/2001/REC-SVG-20010904/DTD/svg10.dtd">
<svg version="1.0" xmlns="http://www.w3.org/2000/svg"
 width="700.000000pt" height="700.000000pt" viewBox="0 0 700.000000 700.000000"
 preserveAspectRatio="xMidYMid meet">
<metadata>
Created by potrace 1.14, written by Peter Selinger 2001-2017
</metadata>
<g transform="translate(0.000000,700.000000) scale(0.100000,-0.100000)"
fill="#000000" stroke="none">
<path d="M1760 5068 c-46 -8 -95 -35 -124 -69 -48 -57 -62 -159 -30 -221 9
-18 242 -370 518 -782 275 -413 503 -755 505 -761 2 -5 12 -18 23 -29 10 -11
18 -24 18 -28 0 -5 5 -14 11 -21 6 -7 157 -232 337 -502 357 -534 362 -541
459 -552 60 -6 111 9 154 44 17 14 87 110 155 214 102 153 126 197 133 237 15
95 -34 183 -127 229 -71 35 -151 29 -224 -16 -49 -31 -72 -36 -103 -25 -17 7
-1183 1750 -1198 1792 -12 32 -1 69 27 87 32 21 382 24 414 4 11 -7 273 -392
582 -856 309 -463 572 -853 585 -867 68 -73 190 -82 273 -19 20 15 150 200
330 471 163 246 299 449 302 452 3 3 143 212 311 465 233 349 309 471 316 506
20 93 -31 194 -116 232 -45 20 -63 21 -596 21 -302 1 -572 -3 -599 -7 -27 -5
-65 -20 -83 -34 -41 -31 -308 -426 -329 -486 -33 -92 17 -212 108 -258 77 -39
169 -32 229 18 26 22 191 256 224 317 5 11 22 28 36 38 23 17 44 19 175 20
241 0 232 1 259 -27 14 -13 25 -36 25 -50 0 -39 -656 -1022 -689 -1033 -62
-21 -54 -32 -553 717 -258 388 -477 714 -485 723 -9 10 -36 27 -61 40 -45 21
-50 22 -598 22 -304 1 -571 -2 -594 -6z"/>
</g>
</svg>
